<?xml version="1.0" encoding="UTF-8"?>
<svg version="1.1" xmlns="http://www.w3.org/2000/svg" width="512" height="512">
<path d="M0 0 C1.01790619 0.00215515 2.03581238 0.0043103 3.08456421 0.00653076 C17.69363523 0.05620146 32.02575853 0.30709809 46.375 3.3125 C47.34985352 3.51117676 48.32470703 3.70985352 49.32910156 3.91455078 C97.7109774 14.03517194 141.69928269 35.9516877 177.375 70.3125 C178.3640332 71.26068604 178.3640332 71.26068604 179.37304688 72.22802734 C188.86130305 81.37247479 197.6012044 90.66984009 205.375 101.3125 C206.23306152 102.46355017 207.09113451 103.61459177 207.94921875 104.765625 C213.98736829 112.95680614 219.34595521 121.47054105 224.375 130.3125 C224.73948242 130.94430176 225.10396484 131.57610352 225.47949219 132.22705078 C247.08534998 169.97532572 256.85198095 212.74189997 256.6875 255.9375 C256.68534485 256.95540619 256.6831897 257.97331238 256.68096924 259.02206421 C256.63129854 273.63113523 256.38040191 287.96325853 253.375 302.3125 C253.07698486 303.77478027 253.07698486 303.77478027 252.77294922 305.26660156 C242.65232806 353.6484774 220.7358123 397.63678269 186.375 433.3125 C185.74287598 433.97185547 185.11075195 434.63121094 184.45947266 435.31054688 C175.31502521 444.79880305 166.01765991 453.5387044 155.375 461.3125 C154.22394983 462.17056152 153.07290823 463.02863451 151.921875 463.88671875 C143.73224019 469.92427396 135.22961724 475.30707302 126.375 480.3125 C125.66778809 480.7146875 124.96057617 481.116875 124.23193359 481.53125 C101.09654164 494.5566741 75.92537591 503.30551461 49.9375 508.625 C49.21860596 508.77235596 48.49971191 508.91971191 47.7590332 509.0715332 C33.08339502 511.86090125 18.55831162 512.66142619 3.64770508 512.62817383 C0.70811513 512.6250221 -2.2304558 512.64854926 -5.16992188 512.67382812 C-18.54306192 512.71848737 -31.43916711 511.51301542 -44.625 509.3125 C-46.33055054 509.03031616 -46.33055054 509.03031616 -48.07055664 508.74243164 C-91.33802759 500.97044532 -132.38793216 480.98345309 -165.625 452.3125 C-166.37007813 451.67828125 -167.11515625 451.0440625 -167.8828125 450.390625 C-181.38779833 438.57948485 -194.05918743 425.82889772 -204.625 411.3125 C-205.48149066 410.16255169 -206.33826433 409.01281411 -207.1953125 407.86328125 C-213.23534209 399.67315742 -218.61867614 391.16870382 -223.625 382.3125 C-224.0271875 381.60528809 -224.429375 380.89807617 -224.84375 380.16943359 C-237.8691741 357.03404164 -246.61801461 331.86287591 -251.9375 305.875 C-252.08485596 305.15610596 -252.23221191 304.43721191 -252.3840332 303.6965332 C-255.35789088 288.05024391 -255.99800362 272.57681954 -255.9375 256.6875 C-255.93534485 255.66959381 -255.9331897 254.65168762 -255.93096924 253.60293579 C-255.88129854 238.99386477 -255.63040191 224.66174147 -252.625 210.3125 C-252.42632324 209.33764648 -252.22764648 208.36279297 -252.02294922 207.35839844 C-241.90232806 158.9765226 -219.9858123 114.98821731 -185.625 79.3125 C-184.99287598 78.65314453 -184.36075195 77.99378906 -183.70947266 77.31445312 C-174.56502521 67.82619695 -165.26765991 59.0862956 -154.625 51.3125 C-153.47394983 50.45443848 -152.32290823 49.59636549 -151.171875 48.73828125 C-142.98224019 42.70072604 -134.47961724 37.31792698 -125.625 32.3125 C-124.91778809 31.9103125 -124.21057617 31.508125 -123.48193359 31.09375 C-100.34654164 18.0683259 -75.17537591 9.31948539 -49.1875 4 C-48.46860596 3.85264404 -47.74971191 3.70528809 -47.0090332 3.5534668 C-31.36274391 0.57960912 -15.88931954 -0.06050362 0 0 Z " fill="#FFA037" transform="translate(255.625,-0.3125)"/>
<path d="M0 0 C1.52087723 0.00173721 1.52087723 0.00173721 3.07247925 0.00350952 C17.68794125 0.03655039 32.0062509 0.37029622 46.375 3.3125 C47.44572754 3.5285791 47.44572754 3.5285791 48.53808594 3.74902344 C52.17874597 4.50314794 55.78622411 5.34125739 59.375 6.3125 C59.375 6.9725 59.375 7.6325 59.375 8.3125 C58.45203125 8.52003906 57.5290625 8.72757813 56.578125 8.94140625 C15.37179585 18.52452334 -22.04478739 39.66242852 -53.15625 68.06640625 C-54.80837465 69.56952599 -56.47530887 71.05652026 -58.15625 72.52734375 C-66.54077287 79.88967942 -73.69852144 88.02864244 -80.625 96.75 C-81.10638428 97.35352295 -81.58776855 97.9570459 -82.08374023 98.57885742 C-84.0915681 101.14431467 -85.58657881 103.19723644 -86.625 106.3125 C-88.890625 108.00390625 -88.890625 108.00390625 -91.875 109.875 C-98.76108831 114.31950652 -105.18836049 119.24624181 -111.625 124.3125 C-115.48668507 122.76605861 -117.57009347 120.31919894 -120.3125 117.25 C-124.67981129 112.80360294 -124.67981129 112.80360294 -130.4375 110.875 C-133.59966735 110.90846209 -134.67568263 111.3422485 -137.5 113 C-145.18782395 124.98396086 -143.90001968 142.36734648 -142.15625 155.96875 C-141.4911538 158.85083355 -140.63906991 161.53433111 -139.625 164.3125 C-139.21121094 165.55773437 -138.79742187 166.80296875 -138.37109375 168.0859375 C-134.04947052 180.69876484 -127.72202335 191.74466429 -119.8125 202.4375 C-119.36374512 203.0459375 -118.91499023 203.654375 -118.45263672 204.28125 C-109.73375138 215.7332809 -99.26138045 225.81883964 -89.08203125 235.953125 C-87.81957802 237.21370716 -86.55734982 238.47451473 -85.29533386 239.73553467 C-82.0146675 243.01243004 -78.73100705 246.28630827 -75.44665527 249.55950928 C-72.07911477 252.91671739 -68.71449541 256.27685047 -65.34960938 259.63671875 C-58.7775519 266.19813481 -52.20231907 272.75635859 -45.625 279.3125 C-47.12955505 282.49871303 -48.51452378 284.3174478 -51.25 286.5625 C-54.82468113 289.58226673 -58.12571764 292.75967184 -61.375 296.125 C-63.32953138 298.02523884 -65.3255086 299.81502246 -67.3828125 301.6015625 C-71.52091448 305.19583248 -75.51888141 308.92107588 -79.5 312.6875 C-84.61275667 317.50389906 -89.76208222 322.26531028 -95.00390625 326.94140625 C-98.41417614 330.0264045 -101.76888483 333.16881294 -105.125 336.3125 C-109.25861255 340.18421308 -113.40100046 344.03906041 -117.625 347.8125 C-121.89479574 351.64528645 -126.14884173 355.49416984 -130.375 359.375 C-131.00148438 359.94089844 -131.62796875 360.50679688 -132.2734375 361.08984375 C-140.85799975 368.84252753 -140.85799975 368.84252753 -144.625 379.3125 C-144.70363281 380.24707031 -144.78226562 381.18164062 -144.86328125 382.14453125 C-145.07340525 390.5826688 -143.76764407 395.67364897 -138.25 402.0625 C-131.46287695 407.88003405 -126.57219105 409.69213483 -117.7578125 409.5859375 C-110.04823674 408.91303188 -104.85600704 405.08575355 -99.3515625 399.8984375 C-97.625 398.3125 -97.625 398.3125 -94.625 396.3125 C-93.78594435 397.43323862 -92.95392169 398.55924547 -92.125 399.6875 C-91.6609375 400.31398438 -91.196875 400.94046875 -90.71875 401.5859375 C-89.625 403.3125 -89.625 403.3125 -89.625 405.3125 C-88.965 405.3125 -88.305 405.3125 -87.625 405.3125 C-86.58470005 406.95431417 -85.59185926 408.62639178 -84.625 410.3125 C-79.97150376 416.57682186 -74.83333031 422.38930346 -69.5078125 428.0859375 C-67.79670024 430.109452 -66.67384684 431.89463203 -65.625 434.3125 C-64.965 434.3125 -64.305 434.3125 -63.625 434.3125 C-62.45795936 435.71981371 -61.29457434 437.13029778 -60.1484375 438.5546875 C-57.30378575 441.83697798 -53.93313411 444.51247799 -50.625 447.3125 C-49.73296875 448.10398437 -48.8409375 448.89546875 -47.921875 449.7109375 C-33.21429988 462.66097315 -16.97447283 473.27037716 0.375 482.3125 C1.68885083 483.0155339 3.00265422 483.71865649 4.31640625 484.421875 C21.47133795 493.45055862 39.70099975 499.31763063 58.375 504.3125 C58.375 504.9725 58.375 505.6325 58.375 506.3125 C39.37732797 512.07308442 20.003843 512.6155933 0.3125 512.6875 C-1.1374234 512.69914688 -1.1374234 512.69914688 -2.61663818 512.71102905 C-16.85378993 512.80100407 -30.58100536 511.64374679 -44.625 509.3125 C-45.76251709 509.12445801 -46.90003418 508.93641602 -48.07202148 508.74267578 C-91.34046863 500.96262871 -132.38514927 480.98585366 -165.625 452.3125 C-166.37007813 451.67828125 -167.11515625 451.0440625 -167.8828125 450.390625 C-181.38779833 438.57948485 -194.05918743 425.82889772 -204.625 411.3125 C-205.48149066 410.16255169 -206.33826433 409.01281411 -207.1953125 407.86328125 C-213.23534209 399.67315742 -218.61867614 391.16870382 -223.625 382.3125 C-224.0271875 381.60528809 -224.429375 380.89807617 -224.84375 380.16943359 C-237.8691741 357.03404164 -246.61801461 331.86287591 -251.9375 305.875 C-252.08485596 305.15610596 -252.23221191 304.43721191 -252.3840332 303.6965332 C-255.35789088 288.05024391 -255.99800362 272.57681954 -255.9375 256.6875 C-255.93534485 255.66959381 -255.9331897 254.65168762 -255.93096924 253.60293579 C-255.88129854 238.99386477 -255.63040191 224.66174147 -252.625 210.3125 C-252.42632324 209.33764648 -252.22764648 208.36279297 -252.02294922 207.35839844 C-241.90232806 158.9765226 -219.9858123 114.98821731 -185.625 79.3125 C-184.99287598 78.65314453 -184.36075195 77.99378906 -183.70947266 77.31445312 C-174.56502521 67.82619695 -165.26765991 59.0862956 -154.625 51.3125 C-153.47394983 50.45443848 -152.32290823 49.59636549 -151.171875 48.73828125 C-142.98224019 42.70072604 -134.47961724 37.31792698 -125.625 32.3125 C-124.91778809 31.9103125 -124.21057617 31.508125 -123.48193359 31.09375 C-100.34654164 18.0683259 -75.17537591 9.31948539 -49.1875 4 C-48.46860596 3.85264404 -47.74971191 3.70528809 -47.0090332 3.5534668 C-31.36158987 0.57938977 -15.89014787 -0.05620044 0 0 Z " fill="#FF8C32" transform="translate(255.625,-0.3125)"/>
<path d="M0 0 C3.34265205 1.20706879 3.94704566 1.92056849 6 5 C6.99310424 11.51035003 6.99310424 11.51035003 4.81468201 14.77796936 C-0.199769 20.26837143 -5.46977192 25.47895811 -10.81471062 30.64535332 C-13.56650907 33.31154084 -16.29829737 35.99814688 -19.03320312 38.68164062 C-22.49321248 42.07558354 -25.95897122 45.46282328 -29.44946289 48.82543945 C-32.29126683 51.56418688 -35.11036703 54.32457118 -37.91565132 57.10069466 C-38.98217672 58.14816628 -40.05669035 59.18757156 -41.13935661 60.21835136 C-47.1321907 65.60537398 -47.1321907 65.60537398 -50.67752075 72.59817505 C-50.7343303 76.07917462 -50.1000912 78.69972639 -49 82 C-45.20871335 83.26376222 -41.91100657 83.85231817 -38 83 C-36.03768389 81.71545792 -36.03768389 81.71545792 -34.22607422 79.96264648 C-33.53149109 79.32503387 -32.83690796 78.68742126 -32.12127686 78.03048706 C-28.7163791 74.77131755 -25.37494847 71.45833772 -22.0703125 68.09765625 C-20.60169035 66.61640969 -19.13293668 65.13529352 -17.6640625 63.65429688 C-15.37766588 61.34291907 -13.09291719 59.02995354 -10.81054688 56.71459961 C-8.58893953 54.46297693 -6.36130595 52.21746068 -4.1328125 49.97265625 C-3.44639679 49.27278091 -2.75998108 48.57290558 -2.05276489 47.8518219 C-1.41805267 47.21373093 -0.78334045 46.57563995 -0.12939453 45.91821289 C0.42827606 45.35308487 0.98594666 44.78795685 1.56051636 44.20570374 C3 43 3 43 5 43 C5.34224609 42.16855469 5.34224609 42.16855469 5.69140625 41.3203125 C7.37194866 38.34048506 9.50111699 36.2720288 11.9375 33.875 C12.81277344 33.00617188 13.68804687 32.13734375 14.58984375 31.2421875 C17.6003039 28.44153252 19.23579597 27.08491156 23.375 26.625 C27.5634385 27.05828674 29.06240039 28.06240039 32 31 C33.50889469 34.01778937 33.50026276 35.62322637 33 39 C28.38584116 45.54548529 22.07306974 51.04888202 16.40105057 56.67411423 C14.81833461 58.2438938 13.23891584 59.81692782 11.6602478 61.39077759 C8.31799671 64.72170278 4.97178053 68.04862667 1.625 71.375 C-2.27680862 75.25317983 -6.17696036 79.13299727 -10.07295609 83.01701736 C-11.62923841 84.56681837 -13.18849812 86.11358086 -14.74789429 87.6602478 C-15.69584558 88.60456892 -16.64365807 89.54902939 -17.59130859 90.49365234 C-18.42068939 91.31779633 -19.25007019 92.14194031 -20.10458374 92.99105835 C-23.33834151 96.41850107 -23.41307725 99.1663275 -23.33203125 103.734375 C-23.11645954 106.27508978 -23.11645954 106.27508978 -21.0625 109.0625 C-17.63895887 111.22841378 -15.57908848 112.01602641 -11.55683899 111.69493103 C-8.33230346 110.81852473 -6.82056984 109.42335883 -4.38745117 107.14282227 C-3.07651993 105.91573044 -3.07651993 105.91573044 -1.73910522 104.66384888 C2.42048639 100.61854117 6.50459888 96.50598835 10.54755211 92.34422112 C13.10218064 89.71943427 15.67485453 87.11237944 18.24414062 84.50195312 C21.48602396 81.20602998 24.72229807 77.90507878 27.94067383 74.58618164 C30.56946247 71.87623799 33.21505752 69.18375791 35.8726902 66.50210762 C36.87533676 65.48407376 37.87167798 64.45978795 38.86133385 63.42912102 C40.24092654 61.99392915 41.64480194 60.58219988 43.04956055 59.17163086 C43.83880417 58.36382675 44.62804779 57.55602264 45.44120789 56.72373962 C48.80146908 54.46008744 51.02698315 54.62891171 55 55 C58.38031589 56.18767855 58.93216817 56.89825225 61 60 C61.58746517 63.32896931 61.83511755 65.77783074 59.85862732 68.67036438 C53.87885825 75.25235092 47.62438601 81.5587074 41.34765625 87.85546875 C40.74623747 88.45971491 40.14481869 89.06396107 39.52517509 89.68651772 C36.34800573 92.87858395 33.16804491 96.06783661 29.9855957 99.25463867 C26.71638807 102.52934539 23.45657707 105.81324223 20.19884586 109.09936047 C17.67389099 111.643003 15.1421907 114.17985067 12.60864067 116.71492958 C11.40417982 117.92239897 10.20219843 119.13234732 9.0028553 120.34490013 C-3.825532 133.30455812 -15.03129355 140.26175704 -33.74951172 140.45669556 C-36.77015542 140.46506882 -39.79005138 140.44432643 -42.81054688 140.4152832 C-45.0513329 140.40076664 -47.29052139 140.41597885 -49.53125 140.43359375 C-50.84673828 140.42384521 -52.16222656 140.41409668 -53.51757812 140.40405273 C-57.86105256 141.14735203 -59.22060009 142.67122017 -62 146 C-62.72960937 146.71800781 -63.45921875 147.43601563 -64.2109375 148.17578125 C-68.36780781 152.28012793 -72.36564789 156.44825561 -76.16796875 160.8828125 C-79.07709975 164.24475067 -82.08617359 167.51616623 -85.08203125 170.80078125 C-87.12519492 173.04822519 -87.12519492 173.04822519 -89 176 C-88.46769901 176.52953561 -87.93539803 177.05907122 -87.38696671 177.60465336 C-74.42517768 190.50013987 -61.47173895 203.40395967 -48.52750015 216.31706333 C-42.26751993 222.56158598 -36.00476271 228.80327482 -29.73535156 235.03833008 C-24.26985101 240.47389438 -18.80967493 245.914742 -13.35578132 251.3619532 C-10.46879528 254.24503417 -7.57924337 257.12543157 -4.6832962 259.99951363 C-1.95504216 262.70733584 0.76601225 265.422192 3.48181915 268.14249611 C4.47729131 269.13714606 5.47531805 270.12924725 6.47613525 271.11851883 C14.66750659 279.22003906 20.04628333 285.42437513 20.3125 297.25 C20.22308895 305.24334823 18.13292066 309.85814564 12.875 315.75 C7.5233247 320.73652901 1.21842805 323.14952054 -6.0625 323.5 C-21.78240275 322.69070703 -32.8300782 307.35747737 -43.26953125 297.00390625 C-43.88297583 296.39578535 -44.4964204 295.78766445 -45.12845421 295.16111565 C-48.36637941 291.94968359 -51.60077936 288.73474417 -54.83276367 285.51733398 C-57.48798118 282.87550276 -60.15030242 280.24115612 -62.8190918 277.61303711 C-66.07085227 274.41078584 -69.30998418 271.19625314 -72.54062462 267.97270012 C-73.7630664 266.75692656 -74.98972315 265.54537441 -76.22083473 264.33838081 C-91.95562606 248.89479234 -91.95562606 248.89479234 -92.4375 238.1875 C-92.23916718 234.74973115 -91.30576807 232.18280968 -90 229 C-89.2315733 224.90589727 -89.2315733 224.90589727 -90 221 C-93.99679056 215.34496655 -99.55679422 208.80530996 -106.10546875 206.14453125 C-111.22414625 205.32823184 -113.9551879 206.1871181 -118.25 209.125 C-121.76309743 211.86640322 -124.96505111 214.73159351 -128 218 C-129.45625166 219.43960879 -130.9148275 220.87686821 -132.375 222.3125 C-135.83249806 225.76428318 -139.07534047 229.32805298 -142.25390625 233.03515625 C-144.65209001 235.73378361 -147.21611524 238.24314575 -149.8125 240.75 C-151.71273884 242.70453138 -153.50252246 244.7005086 -155.2890625 246.7578125 C-158.88333248 250.89591448 -162.60857588 254.89388141 -166.375 258.875 C-171.19139906 263.98775667 -175.95281028 269.13708222 -180.62890625 274.37890625 C-183.7139045 277.78917614 -186.85631294 281.14388483 -190 284.5 C-193.87171308 288.63361255 -197.72656041 292.77600046 -201.5 297 C-202.18964844 297.76570313 -202.87929687 298.53140625 -203.58984375 299.3203125 C-204.93408736 300.81488481 -206.27617025 302.31143494 -207.60986328 303.81542969 C-209.41572501 305.84608955 -211.23799544 307.86108713 -213.0625 309.875 C-213.62839844 310.51824219 -214.19429687 311.16148437 -214.77734375 311.82421875 C-219.82707622 317.35099968 -225.98345264 321.54665276 -233.63671875 322.23828125 C-242.95813143 322.46505057 -249.15254613 320.46703977 -256 314 C-262.46092138 305.32390557 -262.83088726 297.88449442 -261.5625 287.375 C-256.16527344 275.71699062 -243.28390909 266.56805211 -234 258 C-233.4225 257.46665039 -232.845 256.93330078 -232.25 256.38378906 C-228.84463295 253.24342301 -225.42378087 250.12028783 -222 247 C-220.02016858 245.18821793 -218.04084523 243.37590259 -216.0625 241.5625 C-215.56967529 241.11092529 -215.07685059 240.65935059 -214.5690918 240.1940918 C-210.32169538 236.30001252 -206.08797042 232.39123087 -201.85571289 228.48071289 C-197.75549968 224.69359575 -193.64362989 220.91942275 -189.52612305 217.15112305 C-186.33810745 214.23179288 -183.16113508 211.30084611 -179.98901367 208.36425781 C-174.38376504 203.17611738 -168.73832104 198.041419 -163 193 C-164.6295893 188.83934398 -167.67112423 186.09011833 -170.80395508 183.0324707 C-171.39784027 182.44471863 -171.99172546 181.85696655 -172.60360718 181.25140381 C-173.89408805 179.97522201 -175.18679557 178.70128878 -176.48145485 177.42934608 C-178.54479221 175.40094804 -180.60082938 173.36540819 -182.654953 171.3276825 C-188.49707267 165.53427334 -194.34981034 159.75169091 -200.21264648 153.97924805 C-203.80297387 150.44326244 -207.38285963 146.89696172 -210.95700645 143.34462547 C-212.30721489 142.00664606 -213.66117822 140.6724427 -215.01929665 139.34249306 C-236.68511339 118.12130616 -259.2362899 89.94389813 -260.30078125 58.1953125 C-260.31987723 56.17196134 -260.32344345 54.14841168 -260.3125 52.125 C-260.30831055 51.07014404 -260.30412109 50.01528809 -260.29980469 48.9284668 C-260.17345756 40.2326929 -259.78177821 32.29911177 -254.9375 24.8125 C-252.09345316 22.15194006 -251.18781411 22.01404478 -247.15205383 21.71224976 C-239.56386815 22.70596651 -234.62409122 29.38013765 -229.56713867 34.60400391 C-228.34255444 35.83903758 -227.11615621 37.07227484 -225.88809204 38.30384827 C-223.25394489 40.95308506 -220.63284844 43.61436824 -218.02120018 46.28578568 C-213.89407336 50.50688275 -209.73811711 54.69878928 -205.57771301 58.88705444 C-198.25691671 66.26424432 -190.96072263 73.66538546 -183.66992188 81.07220459 C-172.68004104 92.23674013 -161.67238463 103.38365589 -150.63944036 114.50563943 C-146.50429063 118.67604373 -142.3828159 122.85938266 -138.27153909 127.05331826 C-135.71800644 129.65356791 -133.15437077 132.2436762 -130.58797073 134.83122063 C-129.39672614 136.03666594 -128.20985074 137.24644635 -127.02762413 138.46073723 C-125.41831676 140.11259168 -123.79443873 141.74859709 -122.16593933 143.38150024 C-121.25952289 144.3029162 -120.35310644 145.22433216 -119.41922283 146.17366982 C-117.21472092 148.23844175 -117.21472092 148.23844175 -114.82068348 147.91609764 C-112.09649544 146.54539138 -110.34261507 144.58090952 -108.25 142.375 C-104.00564283 138.00033362 -99.61970277 133.96720238 -95 130 C-93.26481125 128.48604115 -91.53588981 126.96487649 -89.8125 125.4375 C-89.01457031 124.73496094 -88.21664062 124.03242188 -87.39453125 123.30859375 C-81.88079941 118.2434874 -81.88079941 118.2434874 -79.41992188 111.49584961 C-79.43603516 110.22749268 -79.45214844 108.95913574 -79.46875 107.65234375 C-79.46548706 106.95919571 -79.46222412 106.26604767 -79.4588623 105.55189514 C-79.44585086 102.61738149 -79.48982851 99.68443763 -79.52978516 96.75024414 C-79.70536155 78.6025866 -74.13717943 67.27588673 -61.46380806 54.24531555 C-58.52917044 51.26761036 -55.56692432 48.31815273 -52.6015625 45.37109375 C-51.31704753 44.08777347 -50.03290485 42.80408045 -48.74911499 41.52003479 C-46.07785566 38.85032839 -43.40330466 36.18398183 -40.72607422 33.52026367 C-37.2910066 30.10231399 -33.86268874 26.6776882 -30.43654823 23.2507925 C-27.79466075 20.60917627 -25.15018109 17.97016839 -22.5048027 15.33204842 C-21.23869346 14.0691227 -19.97319016 12.80558921 -18.70830154 11.54144096 C-16.94947677 9.78477576 -15.18740546 8.03143665 -13.42431641 6.27905273 C-12.90173248 5.75601563 -12.37914856 5.23297852 -11.84072876 4.6940918 C-7.73368303 0.62359898 -5.83018976 -0.34981139 0 0 Z " fill="#FEFEFD" transform="translate(372,88)"/>
<path d="M0 0 C-4.46769484 5.3708842 -9.21723277 10.29475649 -14.21484375 15.171875 C-15.80448652 16.73912698 -17.39366482 18.30685016 -18.98242188 19.875 C-21.45718765 22.31277779 -23.93479545 24.74736006 -26.4206543 27.17382812 C-39.33849828 39.31637716 -39.33849828 39.31637716 -49 54 C-49.34764404 54.68666748 -49.69528809 55.37333496 -50.0534668 56.08081055 C-53.36290224 63.97526085 -52.36250507 73.37404353 -52.20947266 81.79174805 C-51.99604995 95.81733129 -51.99604995 95.81733129 -56.08203125 100.5859375 C-57.35647867 101.75917404 -58.66315668 102.89838748 -60 104 C-61.23224257 105.19471976 -62.46014112 106.39393672 -63.68359375 107.59765625 C-64.93084 108.75698294 -66.18220468 109.91189353 -67.4375 111.0625 C-68.09347168 111.66956787 -68.74944336 112.27663574 -69.42529297 112.90209961 C-73.36642495 116.53785005 -77.34506088 120.12307127 -81.4296875 123.59765625 C-82.98304621 124.98485968 -84.35351232 126.45717379 -85.75 128 C-88 130 -88 130 -89.84718704 129.89589024 C-92.77708206 128.67661834 -94.45435809 126.91400947 -96.69500732 124.66575623 C-97.15169934 124.21162749 -97.60839135 123.75749875 -98.07892251 123.28960854 C-99.60768679 121.76578643 -101.12548052 120.23148815 -102.64355469 118.69702148 C-103.73708245 117.60264755 -104.83127115 116.50893371 -105.92607117 115.41583252 C-108.89737086 112.44539457 -111.85932166 109.46578893 -114.81970501 106.4844768 C-117.91466509 103.37077979 -121.01810667 100.26556026 -124.1206665 97.15943909 C-129.99498927 91.2757871 -135.86162201 85.38452864 -141.72554421 79.49051291 C-148.40157643 72.78096403 -155.08611572 66.07991826 -161.77139044 59.37958038 C-175.52376134 45.59584057 -189.26538899 31.80143532 -203 18 C-149.46093431 -35.90994218 -62.75049535 -34.71303998 0 0 Z " fill="#FEC850" transform="translate(346,107)"/>
<path d="M0 0 C20.01767016 39.72146499 25.0352016 85.19632075 12 128 C11.77892578 128.74217773 11.55785156 129.48435547 11.33007812 130.24902344 C5.27246319 150.15378795 -4.2526831 168.56861811 -17 185 C-18.20997094 186.62378101 -19.4185757 188.2485822 -20.625 189.875 C-21.40875 190.90625 -22.1925 191.9375 -23 193 C-58.33333333 157.66666667 -93.66666667 122.33333333 -129 87 C-128.05776991 85.89592516 -127.11484287 84.79244508 -126.17163086 83.68920898 C-125.38410683 82.76736061 -125.38410683 82.76736061 -124.58067322 81.82688904 C-122.29570505 79.18599954 -119.9337246 76.62645113 -117.5625 74.0625 C-112.71972371 68.80652593 -107.93736886 63.50678788 -103.34765625 58.02734375 C-102.82042969 57.39957031 -102.29320312 56.77179688 -101.75 56.125 C-101.29109375 55.57070312 -100.8321875 55.01640625 -100.359375 54.4453125 C-97.91190574 51.84311818 -96.30212601 51.0237006 -92.74462891 50.74462891 C-91.40533944 50.73003261 -90.0659301 50.72461999 -88.7265625 50.7265625 C-87.2460867 50.7062366 -85.76561803 50.68538524 -84.28515625 50.6640625 C-81.97080492 50.64169222 -79.65673875 50.62508147 -77.34228516 50.61914062 C-58.33456803 50.53701612 -45.58179969 45.92565749 -31.92086792 32.26075745 C-31.11940338 31.44380905 -30.31793884 30.62686066 -29.4921875 29.78515625 C-28.64069122 28.92941513 -27.78919495 28.07367401 -26.91189575 27.19200134 C-24.22572811 24.48920132 -21.55025177 21.77610058 -18.875 19.0625 C-17.04236682 17.21480009 -15.20903975 15.36778812 -13.375 13.52148438 C-8.9086194 9.02223961 -4.4509404 4.51451702 0 0 Z " fill="#FEC850" transform="translate(411,177)"/>
<path d="M0 0 C4.46750497 1.35114784 7.24678662 4.41769895 10.40234375 7.7265625 C11.08039063 8.37367188 11.7584375 9.02078125 12.45703125 9.6875 C15.61528162 12.89648531 17.83414989 15.27878711 17.96484375 19.9140625 C17.40234375 23.7265625 17.40234375 23.7265625 16.40234375 26.1640625 C14.61706918 30.73882858 14.63559004 35.16515678 16.04484558 39.87289429 C20.13627666 49.00039558 27.42494765 55.37652754 34.453125 62.265625 C35.83712794 63.64028758 37.22002005 65.01606936 38.60185242 66.39291382 C42.21909103 69.99117933 45.85109508 73.57416586 49.48651123 77.15405273 C53.20261674 80.81875631 56.90438169 84.49788446 60.60742188 88.17578125 C67.85852602 95.37346885 75.12532986 102.55507778 82.40234375 109.7265625 C57.20668462 130.23356679 21.3422133 136.06829603 -10.09765625 136.1015625 C-10.89759003 136.10364716 -11.6975238 136.10573181 -12.521698 136.10787964 C-27.59442713 136.10342787 -42.09594539 134.97695328 -56.59765625 130.5390625 C-58.13474243 130.07777954 -58.13474243 130.07777954 -59.70288086 129.60717773 C-67.64344327 127.15898832 -75.26578894 124.30450664 -82.72558594 120.64453125 C-84.02502325 120.00735281 -85.33091265 119.38323174 -86.64160156 118.76953125 C-100.48110741 112.27356871 -100.48110741 112.27356871 -104.12890625 105.5859375 C-104.74567846 103.13940773 -104.59570891 102.05829615 -103.59765625 99.7265625 C-101.55859375 97.4296875 -101.55859375 97.4296875 -98.97265625 94.9765625 C-95.98375482 92.0760652 -93.05161481 89.20754728 -90.34765625 86.0390625 C-86.95673866 82.08032616 -83.41118513 78.27918102 -79.84765625 74.4765625 C-73.71870584 67.93383303 -67.64417995 61.34553815 -61.59765625 54.7265625 C-57.93459948 50.72325082 -54.26733725 46.72380219 -50.59765625 42.7265625 C-49.90833008 41.97536133 -49.90833008 41.97536133 -49.20507812 41.20898438 C-44.30853012 35.87658231 -39.39446231 30.56248561 -34.421875 25.30078125 C-33.70539795 24.54240967 -32.9889209 23.78403809 -32.25073242 23.00268555 C-30.84514351 21.51676816 -29.43782996 20.03247974 -28.02856445 18.55004883 C-25.36999951 15.74064332 -22.7940541 12.97847173 -20.4140625 9.92578125 C-18.47492788 7.57796879 -16.6020424 6.15911078 -14.03515625 4.5390625 C-13.27074219 4.05050781 -12.50632812 3.56195313 -11.71875 3.05859375 C-11.01878906 2.61902344 -10.31882812 2.17945313 -9.59765625 1.7265625 C-5.90147411 -0.73755892 -4.26283297 -0.59417121 0 0 Z " fill="#FEC850" transform="translate(265.59765625,293.2734375)"/>
<path d="M0 0 C0.66 0 1.32 0 2 0 C2.16491943 0.52207031 2.32983887 1.04414063 2.49975586 1.58203125 C12.53193467 32.87393485 31.58751565 54.78679537 54.54296875 77.640625 C55.80542198 78.90120716 57.06765018 80.16201473 58.32966614 81.42303467 C61.6103325 84.69993004 64.89399295 87.97380827 68.17834473 91.24700928 C71.54588523 94.60421739 74.91050459 97.96435047 78.27539062 101.32421875 C84.8474481 107.88563481 91.42268093 114.44385859 98 121 C96.49544495 124.18621303 95.11047622 126.0049478 92.375 128.25 C88.80031887 131.26976673 85.49928236 134.44717184 82.25 137.8125 C80.29546862 139.71273884 78.2994914 141.50252246 76.2421875 143.2890625 C72.10408552 146.88333248 68.10611859 150.60857588 64.125 154.375 C59.01224333 159.19139906 53.86291778 163.95281028 48.62109375 168.62890625 C45.21082321 171.71390509 41.85614181 174.85634052 38.5 178 C33.56809415 182.61873013 28.60118146 187.18893583 23.5625 191.69140625 C18.32692036 196.40821656 13.16965427 201.21118233 8 206 C6.66666667 204.33333333 5.33333333 202.66666667 4 201 C3.14921875 199.96746094 3.14921875 199.96746094 2.28125 198.9140625 C-14.68406733 177.11214154 -25.9691412 147.42485822 -29 120 C-29.08846191 119.26322021 -29.17692383 118.52644043 -29.26806641 117.76733398 C-31.25459609 100.11262477 -30.61186437 82.37546503 -27 65 C-26.86609863 64.30181152 -26.73219727 63.60362305 -26.59423828 62.88427734 C-22.39242502 41.07050012 -13.36695433 17.87103677 0 0 Z " fill="#FEC850" transform="translate(112,158)"/>
<path d="M0 0 C0.66 0 1.32 0 2 0 C2.18062988 0.54825439 2.36125977 1.09650879 2.54736328 1.66137695 C3.39579501 4.21551556 4.25756589 6.76475043 5.125 9.3125 C5.59389648 10.68994385 5.59389648 10.68994385 6.07226562 12.09521484 C8.12819232 17.9649894 10.45327778 23.19066866 14.03125 28.3203125 C16.60019506 35.42634601 13.40826638 44.64803553 12.0625 51.875 C4.42388845 94.90607528 7.12754115 138.59616531 21.49682617 179.98095703 C21.83560791 180.97208496 22.17438965 181.96321289 22.5234375 182.984375 C22.9862915 184.29486816 22.9862915 184.29486816 23.45849609 185.63183594 C24.06325174 188.27661944 24.0509229 189.51176202 23 192 C21.50952148 193.73925781 21.50952148 193.73925781 19.62109375 195.453125 C18.94755859 196.071875 18.27402344 196.690625 17.58007812 197.328125 C16.87302734 197.96234375 16.16597656 198.5965625 15.4375 199.25 C14.72658203 199.8996875 14.01566406 200.549375 13.28320312 201.21875 C11.52878978 202.82009373 9.76769751 204.41335276 8 206 C6.66666667 204.33333333 5.33333333 202.66666667 4 201 C3.14921875 199.96746094 3.14921875 199.96746094 2.28125 198.9140625 C-14.68406733 177.11214154 -25.9691412 147.42485822 -29 120 C-29.08846191 119.26322021 -29.17692383 118.52644043 -29.26806641 117.76733398 C-31.25459609 100.11262477 -30.61186437 82.37546503 -27 65 C-26.86609863 64.30181152 -26.73219727 63.60362305 -26.59423828 62.88427734 C-22.39242502 41.07050012 -13.36695433 17.87103677 0 0 Z " fill="#FFB13C" transform="translate(112,158)"/>
<path d="M0 0 C1.85361759 2.46650198 3.68931577 4.94085848 5.48046875 7.453125 C6.14272461 8.38125 6.14272461 8.38125 6.81835938 9.328125 C7.27017578 9.96234375 7.72199219 10.5965625 8.1875 11.25 C8.88262695 12.22453125 8.88262695 12.22453125 9.59179688 13.21875 C10.72829615 14.81219228 11.86420705 16.40605418 13 18 C8.84790109 22.94965038 4.53152774 27.616321 -0.04296875 32.17578125 C-0.69324539 32.82701462 -1.34352203 33.47824799 -2.01350403 34.1492157 C-3.37618327 35.51257049 -4.74010626 36.87468319 -6.10522461 38.2355957 C-8.19566672 40.32064565 -10.28067171 42.41102687 -12.36523438 44.50195312 C-13.69499168 45.83105022 -15.02505884 47.1598374 -16.35546875 48.48828125 C-16.97737595 49.11221268 -17.59928314 49.7361441 -18.24003601 50.37898254 C-18.82106583 50.9568602 -19.40209564 51.53473785 -20.00073242 52.13012695 C-20.50892014 52.63751907 -21.01710785 53.14491119 -21.54069519 53.66767883 C-25.29404507 57.09442522 -27.9102244 57.47764293 -32.7734375 57.3984375 C-36.29089028 56.76899858 -37.86961418 54.72955683 -40 52 C-40.33 51.67 -40.66 51.34 -41 51 C-41.74821263 47.11439578 -41.95482689 43.43325885 -39.70542908 40.0567627 C-39.13482254 39.44570679 -38.564216 38.83465088 -37.97631836 38.20507812 C-37.33862518 37.51607422 -36.70093201 36.82707031 -36.04391479 36.1171875 C-35.36942291 35.41851562 -34.69493103 34.71984375 -34 34 C-33.35862091 33.33484375 -32.71724182 32.6696875 -32.056427 31.984375 C-30.01412639 29.89912682 -27.9503262 27.83756043 -25.87890625 25.78125 C-25.13414536 25.03790405 -24.38938446 24.29455811 -23.62205505 23.52868652 C-21.27123255 21.18340699 -18.91693569 18.84165164 -16.5625 16.5 C-14.95614801 14.89867039 -13.35002603 13.29711002 -11.74414062 11.6953125 C-7.83208015 7.79420527 -3.91717048 3.8959758 0 0 Z " fill="#FFC954" transform="translate(389,143)"/>
<path d="M0 0 C3.94145377 2.60221736 7.70560551 5.27481528 11.375 8.25 C12.24898438 8.95640625 13.12296875 9.6628125 14.0234375 10.390625 C15.00183594 11.18726563 15.00183594 11.18726563 16 12 C15.34604248 12.65323242 14.69208496 13.30646484 14.01831055 13.97949219 C11.0062037 16.99153304 8.00131935 20.01074348 4.99604797 23.02960205 C1.78309425 26.25589909 -1.43247412 29.47958467 -4.64819336 32.703125 C-6.34732295 34.40731882 -8.04555908 36.11240389 -9.74291992 37.81835938 C-12.19477165 40.28228452 -14.64978922 42.74301559 -17.10546875 45.203125 C-17.86691696 45.9697345 -18.62836517 46.73634399 -19.41288757 47.52618408 C-20.11734512 48.23071716 -20.82180267 48.93525024 -21.54760742 49.66113281 C-22.16762131 50.28336731 -22.78763519 50.90560181 -23.42643738 51.54669189 C-26.34782069 54.24481778 -29.02138596 54.41088753 -32.95703125 54.33203125 C-35 54 -35 54 -38 52.0625 C-40.30612087 48.53125243 -40.71770942 46.62951673 -40.60742188 42.49295044 C-39.33349232 37.26455255 -35.03714286 33.95717542 -31.25 30.37109375 C-30.3621582 29.49598648 -29.47431641 28.62087921 -28.55957031 27.71925354 C-26.20777512 25.40919083 -23.83793029 23.12003209 -21.45751953 20.83953857 C-19.02829308 18.50278142 -16.62469745 16.13997366 -14.21875 13.77929688 C-9.50231499 9.16194119 -4.76112081 4.5712405 0 0 Z " fill="#FFC850" transform="translate(361,118)"/>
<path d="M0 0 C2.53176527 1.04128569 3.85016363 2.34858243 5.72998047 4.33544922 C6.41189453 5.04056641 7.09380859 5.74568359 7.79638672 6.47216797 C9.20805978 7.96154781 10.61952047 9.45112897 12.03076172 10.94091797 C16.63940198 15.70578333 20.3609869 19.5066462 27.26123047 20.13623047 C28.30537109 20.10142578 29.34951172 20.06662109 30.42529297 20.03076172 C32.01470703 19.99015625 32.01470703 19.99015625 33.63623047 19.94873047 C34.43287109 19.91392578 35.22951172 19.87912109 36.05029297 19.84326172 C32.77198614 25.30710643 28.6138966 29.43262804 24.05029297 33.84326172 C22.38126056 35.50755928 20.71406361 37.17370405 19.05029297 38.84326172 C5.24661103 33.50315119 -4.00796766 22.36586676 -13.94970703 11.84326172 C-13.01687726 10.73734904 -12.08147019 9.63361004 -11.14501953 8.53076172 C-10.62439941 7.91587891 -10.1037793 7.30099609 -9.56738281 6.66748047 C-3.41160389 -0.27426117 -3.41160389 -0.27426117 0 0 Z " fill="#FAF0C3" transform="translate(210.94970703125,281.15673828125)"/>
<path d="M0 0 C0.33 0.66 0.66 1.32 1 2 C1.5882959 2.28294922 2.1765918 2.56589844 2.78271484 2.85742188 C5.53803915 4.27725427 7.30072819 6.07552154 9.4765625 8.28125 C10.311875 9.12300781 11.1471875 9.96476563 12.0078125 10.83203125 C12.87148438 11.71246094 13.73515625 12.59289062 14.625 13.5 C15.49640625 14.38042969 16.3678125 15.26085937 17.265625 16.16796875 C18.8767826 17.79658471 20.48588267 19.42724047 22.09228516 21.06054688 C23.38932339 22.37916368 24.69212797 23.69212797 26 25 C24.26290889 27.0126297 22.51198281 29.00936293 20.75 31 C20.25886719 31.57234375 19.76773438 32.1446875 19.26171875 32.734375 C17.92308406 34.23364585 16.46554114 35.62452005 15 37 C11 37 11 37 8.34277344 34.796875 C7.33798832 33.79145771 6.34411834 32.77505493 5.359375 31.75 C4.83232971 31.21729492 4.30528442 30.68458984 3.76226807 30.13574219 C2.08189366 28.43298606 0.41595959 26.71685057 -1.25 25 C-2.38709647 23.84284093 -3.52510694 22.68657927 -4.6640625 21.53125 C-7.45341913 18.6978023 -10.22990424 15.85227568 -13 13 C-8.66666667 8.66666667 -4.33333333 4.33333333 0 0 Z " fill="#FAF0C3" transform="translate(269,225)"/>
<path d="M0 0 C0.66 0.33 1.32 0.66 2 1 C1.59910156 1.40347656 1.19820312 1.80695313 0.78515625 2.22265625 C-5.72073326 9.17112328 -10.74916605 17.49833211 -15 26 C-19.2742558 24.4169423 -21.26531794 21.49431596 -24 18 C-17.35074143 12.3455124 -10.65782104 7.27447532 -3.3359375 2.53125 C-1.13204386 1.19994962 -1.13204386 1.19994962 0 0 Z " fill="#FFB13C" transform="translate(167,106)"/>
<path d="M0 0 C1.70884005 1.62339805 3.37446717 3.29319053 5 5 C5 5.66 5 6.32 5 7 C2.0280615 5.87548273 -0.33440687 4.77706209 -3 3 C-2.01 2.01 -1.02 1.02 0 0 Z " fill="#FFAF3C" transform="translate(160,396)"/>
</svg>
